<svg xmlns="http://www.w3.org/2000/svg" version="1.1" xmlns:xlink="http://www.w3.org/1999/xlink" xmlns:svgjs="http://svgjs.dev/svgjs" width="1000" height="623" viewBox="0 0 1000 623"><g transform="matrix(1,0,0,1,-0.6060606060606233,0.2522267206477409)"><svg viewBox="0 0 396 247" data-background-color="#ffffff" preserveAspectRatio="xMidYMid meet" height="623" width="1000" xmlns="http://www.w3.org/2000/svg" xmlns:xlink="http://www.w3.org/1999/xlink"><defs></defs><g id="tight-bounds" transform="matrix(1,0,0,1,0.2400000000000091,-0.09999999999999432)"><svg viewBox="0 0 395.52 247.2" height="247.2" width="395.52"><g><svg></svg></g><g><svg viewBox="0 0 395.52 247.2" height="247.2" width="395.52"><g transform="matrix(1,0,0,1,75.54432,80.86516737076889)"><svg viewBox="0 0 244.43135999999998 85.46966525846223" height="85.46966525846223" width="244.43135999999998"><g><svg viewBox="0 0 434.83785249573145 152.04859840618954" height="85.46966525846223" width="244.43135999999998"><g><rect width="6.310202514697488" height="152.04859840618954" x="167.57743523051698" y="0" fill="#ffffff" opacity="1" stroke-width="0" stroke="transparent" fill-opacity="1" class="rect-o-0" data-fill-palette-color="primary" rx="1%" id="o-0" data-palette-color="#ffffff"></rect></g><g transform="matrix(1,0,0,1,190.40649249573147,0.37823034429399627)"><svg viewBox="0 0 244.43135999999998 151.29213771760155" height="151.29213771760155" width="244.43135999999998"><g><svg viewBox="0 0 244.43135999999998 151.29213771760155" height="151.29213771760155" width="244.43135999999998"><g><svg viewBox="0 0 244.43135999999998 151.29213771760155" height="151.29213771760155" width="244.43135999999998"><g transform="matrix(1,0,0,1,0,0)"><svg width="244.43135999999998" viewBox="1.0500051975250244 -36.599998474121094 129.9499969482422 77.00000762939453" height="151.29213771760155" data-palette-color="#ffffff"><svg></svg><svg></svg><g class="undefined-text-0" data-fill-palette-color="primary" id="text-0"><path d="M28.7-2.1v0l-2.25-3.3c-1.033 0.6-2.123 1.057-3.27 1.37-1.153 0.32-2.347 0.48-3.58 0.48v0c-1.9 0-3.673-0.367-5.32-1.1-1.653-0.733-3.097-1.733-4.33-3v0c-1.267-1.233-2.257-2.7-2.97-4.4-0.72-1.7-1.08-3.5-1.08-5.4v0c0-1.9 0.36-3.7 1.08-5.4 0.713-1.7 1.703-3.2 2.97-4.5v0c1.233-1.267 2.677-2.267 4.33-3 1.647-0.733 3.42-1.1 5.32-1.1v0c0.9 0 1.783 0.09 2.65 0.27 0.867 0.187 1.717 0.463 2.55 0.83v0 3.05h3.95v-5.6c-1.367-0.8-2.807-1.417-4.32-1.85-1.52-0.433-3.13-0.65-4.83-0.65v0c-2.467 0-4.783 0.473-6.95 1.42-2.167 0.953-4.05 2.23-5.65 3.83v0c-1.633 1.633-2.917 3.54-3.85 5.72-0.933 2.187-1.4 4.513-1.4 6.98v0c0 2.467 0.467 4.783 1.4 6.95 0.933 2.167 2.217 4.05 3.85 5.65v0c1.6 1.633 3.483 2.917 5.65 3.85 2.167 0.933 4.483 1.4 6.95 1.4v0c1.7 0 3.31-0.227 4.83-0.68 1.513-0.447 2.937-1.053 4.27-1.82zM32.25 0h11.1v-3.95h-2.85c0.933-2.2 1.633-3.85 2.1-4.95 0.467-1.1 1.167-2.75 2.1-4.95v0h11c0.7 1.667 1.393 3.317 2.08 4.95 0.68 1.633 1.37 3.283 2.07 4.95v0h-2.8v3.95h11.1v-3.95h-4.1c-2.3-5.5-4.607-10.943-6.92-16.33-2.32-5.38-4.63-10.82-6.93-16.32v0c-2.3 5.5-4.61 10.94-6.93 16.32-2.313 5.387-4.62 10.83-6.92 16.33v0h-4.1zM49.65-25.75v0c0.033-0.1 0.093-0.267 0.18-0.5 0.08-0.233 0.187-0.617 0.32-1.15v0l0.5 1.65 3.35 7.95h-7.6c0.467-1.167 0.973-2.46 1.52-3.88 0.553-1.413 1.13-2.77 1.73-4.07zM71.65 0h12.1v-3.95h-4.1v-11.25l3.1-2.95c1.867 2.4 3.727 4.773 5.58 7.12 1.847 2.353 3.72 4.713 5.62 7.08v0h-2.6v3.95h11.1v-3.95h-3.6c-2.233-2.833-4.457-5.643-6.67-8.43-2.22-2.78-4.447-5.587-6.68-8.42v0l10.75-10.25h4.15v-3.95h-11.1v3.95h1.85l-10.7 10.2-0.95 1.15c0.033-0.267 0.067-0.533 0.1-0.8 0.033-0.267 0.05-0.533 0.05-0.8v0-9.75h3.1v-3.95h-11.1v3.95h3.85v27.1h-3.85zM105.95 0h25.05v-7.7h-3.95v3.75h-14.15v-11.7h15.45v-3.95h-15.45v-11.45h13.45v3.75h3.95v-7.7h-24.35v3.95h2.8v27.1h-2.8z" data-fill-palette-color="primary" fill="#ffffff" opacity="1"></path><path d="M19.9 37.8v0c0.933-0.867 1.677-1.9 2.23-3.1 0.547-1.2 0.82-2.55 0.82-4.05v0c0-2.433-0.433-4.35-1.3-5.75-0.867-1.4-2-2.433-3.4-3.1v0c-1.533-0.733-3.133-1.343-4.8-1.83-1.667-0.48-3.1-1.037-4.3-1.67v0c-0.767-0.433-1.383-0.96-1.85-1.58-0.467-0.613-0.7-1.42-0.7-2.42v0c0-0.733 0.11-1.427 0.33-2.08 0.213-0.647 0.537-1.22 0.97-1.72v0c0.467-0.533 1.067-0.96 1.8-1.28 0.733-0.313 1.6-0.47 2.6-0.47v0c1 0 1.917 0.1 2.75 0.3 0.833 0.2 1.567 0.433 2.2 0.7v0 2.95h3.95v-4.9c-0.8-0.667-1.607-1.2-2.42-1.6-0.82-0.4-1.613-0.7-2.38-0.9v0c-0.767-0.2-1.5-0.333-2.2-0.4-0.7-0.067-1.35-0.1-1.95-0.1v0c-1.833 0-3.383 0.283-4.65 0.85-1.267 0.567-2.283 1.3-3.05 2.2v0c-0.767 0.9-1.317 1.9-1.65 3-0.333 1.1-0.483 2.2-0.45 3.3v0c0.033 2.067 0.46 3.667 1.28 4.8 0.813 1.133 1.837 2.017 3.07 2.65v0c1.2 0.633 2.5 1.133 3.9 1.5 1.4 0.367 2.7 0.8 3.9 1.3v0c0.767 0.367 1.443 0.757 2.03 1.17 0.58 0.42 1.087 0.98 1.52 1.68v0c0.267 0.433 0.443 0.95 0.53 1.55 0.08 0.6 0.12 1.2 0.12 1.8v0c0 0.967-0.183 1.817-0.55 2.55-0.367 0.733-0.85 1.35-1.45 1.85v0c-0.633 0.467-1.35 0.823-2.15 1.07-0.8 0.253-1.633 0.38-2.5 0.38v0c-1.5 0-2.85-0.243-4.05-0.73-1.2-0.48-2.233-1.053-3.1-1.72v0-4.45h-3.95v5.8c0.433 0.667 1.043 1.3 1.83 1.9 0.78 0.6 1.67 1.133 2.67 1.6v0c1 0.467 2.1 0.84 3.3 1.12 1.2 0.287 2.433 0.43 3.7 0.43v0c1.4 0 2.733-0.227 4-0.68 1.267-0.447 2.383-1.087 3.35-1.92zM25.65 40h12.1v-3.95h-4v-11.7h18.9v11.7h-4v3.95h12.1v-3.95h-3.95v-27.1h3.95v-3.95h-12.1v3.95h4v11.45h-18.9v-11.45h4v-3.95h-12.1v3.95h3.95v27.1h-3.95zM94.75 35.15v0c1.633-1.6 2.927-3.483 3.88-5.65 0.947-2.167 1.42-4.483 1.42-6.95v0c0-2.433-0.473-4.743-1.42-6.93-0.953-2.18-2.247-4.087-3.88-5.72v0c-1.633-1.633-3.54-2.927-5.72-3.88-2.187-0.947-4.497-1.42-6.93-1.42v0c-2.467 0-4.783 0.473-6.95 1.42-2.167 0.953-4.05 2.247-5.65 3.88v0c-1.633 1.633-2.917 3.54-3.85 5.72-0.933 2.187-1.4 4.497-1.4 6.93v0c0 2.467 0.467 4.783 1.4 6.95 0.933 2.167 2.217 4.05 3.85 5.65v0c1.6 1.633 3.483 2.917 5.65 3.85 2.167 0.933 4.483 1.4 6.95 1.4v0c2.433 0 4.743-0.467 6.93-1.4 2.18-0.933 4.087-2.217 5.72-3.85zM72.45 32.35v0c-1.267-1.233-2.26-2.693-2.98-4.38-0.713-1.68-1.07-3.487-1.07-5.42v0c0-1.933 0.357-3.743 1.07-5.43 0.72-1.68 1.713-3.153 2.98-4.42v0c1.233-1.267 2.683-2.267 4.35-3 1.667-0.733 3.45-1.1 5.35-1.1v0c1.9 0 3.683 0.367 5.35 1.1 1.667 0.733 3.133 1.733 4.4 3v0c1.233 1.267 2.21 2.74 2.93 4.42 0.713 1.687 1.07 3.497 1.07 5.43v0c0 1.933-0.357 3.74-1.07 5.42-0.72 1.687-1.697 3.147-2.93 4.38v0c-1.267 1.267-2.733 2.267-4.4 3-1.667 0.733-3.45 1.1-5.35 1.1v0c-1.9 0-3.683-0.367-5.35-1.1-1.667-0.733-3.117-1.733-4.35-3zM103.55 40h12.1v-3.95h-5.7v-11.65h5.45c3.4 0 6-0.893 7.8-2.68 1.8-1.78 2.7-4.187 2.7-7.22v0c0-1.7-0.4-3.15-1.2-4.35-0.8-1.2-1.8-2.183-3-2.95v0c-1.2-0.767-2.49-1.327-3.87-1.68-1.387-0.347-2.647-0.52-3.78-0.52v0h-10.5v3.95h2.25v27.1h-2.25zM109.95 20.4v-11.45h4.4c1.033 0 2.01 0.15 2.93 0.45 0.913 0.3 1.703 0.7 2.37 1.2v0c0.633 0.533 1.143 1.133 1.53 1.8 0.38 0.667 0.57 1.367 0.57 2.1v0c0 0.633-0.117 1.3-0.35 2-0.233 0.7-0.633 1.333-1.2 1.9v0c-0.567 0.567-1.323 1.04-2.27 1.42-0.953 0.387-2.163 0.58-3.63 0.58v0z" data-fill-palette-color="primary" fill="#ffffff" opacity="1"></path></g></svg></g></svg></g></svg></g></svg></g><g transform="matrix(1,0,0,1,0,16.48618104473333)"><svg viewBox="0 0 151.05858048 119.07623631672288" height="119.07623631672288" width="151.05858048"><g><svg xmlns="http://www.w3.org/2000/svg" xmlns:xlink="http://www.w3.org/1999/xlink" version="1.1" x="0" y="0" viewBox="0.1555829644203186 10.704811096191406 99.69342803955078 78.58618927001953" enable-background="new 0 0 100 100" xml:space="preserve" height="119.07623631672288" width="151.05858048" class="icon-icon-0" data-fill-palette-color="accent" id="icon-0"><g fill="#ffffff" data-fill-palette-color="accent"><path d="M16.346 80.315c0.44 0.123 0.892 0.212 1.351 0.267l73.142 8.649c0.338 0.039 0.673 0.06 1.002 0.06 4.39 0 7.813-3.484 7.832-8.204l0.013-3.021 0.014-3.634h0.002l0.02-4.885-0.002-0.003 0.054-14.005-0.042-0.002 0.048-2.747-0.03-0.005 0.057-7.548c0.007 0.091 0.013 0.181 0.017 0.274l0.021-8.099h0.004c0-0.128-0.001-0.256-0.002-0.382l0.002-0.528c0.001-0.478-0.032-0.951-0.097-1.417-0.826-9.097-6.677-10.224-6.677-10.224s-26.601-8.243-35.592-11.988c-8.992-3.748-14.462-1.499-14.462-1.499s-18.321 4.495-26.376 6.195c-0.01 0.002-0.02 0.004-0.029 0.007-3.57 0.142-6.444 2.603-7.268 6.129-0.041 0.16-0.073 0.548-0.097 1.12l-0.083-0.272c0 0-1.193 14.042-8.61 17.751-2.133 1.067 4.72 1.686 8.667-2.048 0.015 2.482 0.027 4.909 0.027 7.009 0 8.508-0.316 23.091-0.316 23.091C8.915 74.952 12.131 79.139 16.346 80.315M96.296 77.577l-0.013 3.021c-0.014 3.653-0.945 4.734-4.372 4.734-0.259 0-0.525-0.016-0.79-0.048l-67.434-7.819c-3.389-0.686-4.354-2.911-4.439-4.664 0.058-0.464 0.114-0.933 0.168-1.405l-0.104 1.309 0.002-0.068c0.026-0.752 0.142-2.833 0.274-5.246 0.04-0.731 0.083-1.492 0.125-2.261l76.597 8.611L96.296 77.577zM96.483 69.219L19.98 60.071c0.115-2.335 0.196-4.282 0.189-5.135-0.004-0.614-0.014-1.293-0.027-2.134l-0.001-0.021v-0.021c-0.042-1.062-0.095-2.479-0.154-4.044l76.542 8.649L96.483 69.219zM96.562 52.384L19.8 43.808c-0.155-4.145-0.297-7.943-0.306-8.181-0.001-0.05-0.037-2.175 1.253-3.501 0.76-0.781 1.854-1.163 3.347-1.163 0.36 0 0.746 0.023 1.146 0.071 3.88 0.45 18.17 1.931 31.991 3.362 14.835 1.536 30.174 3.124 32.04 3.377 0.35 0.048 0.727 0.089 1.127 0.135 1.674 0.188 2.369 0.222 3.943 1.021 1.592 0.809 2.298 2.02 2.291 3.919L96.562 52.384z" fill="#ffffff" data-fill-palette-color="accent"></path></g></svg></g></svg></g></svg></g></svg></g><path d="M221.761 74.865L221.761 12.415 0 12.415 0 234.785 221.761 234.785 221.761 172.335 218.214 172.335 218.214 231.238 3.547 231.238 3.547 15.962 218.214 15.962 218.214 74.865Z" fill="#ffffff" stroke="transparent" data-fill-palette-color="primary"></path></svg></g></svg><rect width="395.52" height="247.2" fill="none" stroke="none" visibility="hidden"></rect></g></svg></g></svg>